<svg xmlns="http://www.w3.org/2000/svg" width="128" height="128" viewBox="0 0 240 240">
  <defs>
    <style>
      .blue{ fill:#2563eb }
      .green{ fill:#22c55e }
      .white{ fill:#fff }
    </style>
    <clipPath id="clip-bevel-icon">
      <path d="M150,42 L180,42 L196,58 L196,168 Q196,176 188,176 L150,176 Q142,176 142,168 L142,50 Q142,42 150,42 Z"/>
    </clipPath>
  </defs>
  <rect width="240" height="240" fill="none"/>

  <g transform="translate(70,62)">
    <rect x="0" y="0" width="38" height="108" rx="6" class="blue"/>
    <rect x="10" y="14" width="7" height="7" class="white"/>
    <rect x="10" y="34" width="7" height="7" class="white"/>
    <rect x="10" y="54" width="7" height="7" class="white"/>
    <rect x="10" y="74" width="7" height="7" class="white"/>
  </g>

  <g transform="translate(115,40)">
    <g clip-path="url(#clip-bevel-icon)">
      <rect x="142" y="42" width="54" height="136" class="green" transform="translate(-142,-42)"/>
      <rect x="164" y="58" width="6" height="14" class="white" transform="translate(-142,-42)" rx="2"/>
      <rect x="164" y="78" width="6" height="14" class="white" transform="translate(-142,-42)" rx="2"/>
      <rect x="164" y="98" width="6" height="14" class="white" transform="translate(-142,-42)" rx="2"/>
      <rect x="164" y="118" width="6" height="14" class="white" transform="translate(-142,-42)" rx="2"/>
    </g>
  </g>

  <g stroke-linecap="round" fill="none">
    <path d="M108 160 C128 142, 160 142, 180 160" stroke="#2563eb" stroke-width="6"/>
    <path d="M118 174 C135 162, 153 162, 170 174" stroke="#22c55e" stroke-width="6"/>
  </g>
  <circle cx="144" cy="188" r="6" class="blue"/>
</svg>
